<?xml version="1.0" encoding="utf-8"?>
<!-- Generator: Adobe Illustrator 28.3.0, SVG Export Plug-In . SVG Version: 6.00 Build 0)  -->
<svg version="1.1" id="圖層_1" xmlns="http://www.w3.org/2000/svg" xmlns:xlink="http://www.w3.org/1999/xlink" x="0px" y="0px"
	 viewBox="0 0 115.1 70" style="enable-background:new 0 0 115.1 70;" xml:space="preserve">
<style type="text/css">
	.st0{fill:#313131;}
	.st1{fill:#42363A;}
	.st2{fill:#D8CDC1;}
	.st3{fill:#FFEDE1;}
	.st4{fill:#594B4D;}
	.st5{fill:url(#SVGID_1_);}
	.st6{fill:#382F2A;}
	.st7{fill:#F2AD73;}
	.st8{fill:#D3A2C0;}
	.st9{fill:#DD9EC7;}
	.st10{fill:#E7B68A;}
	.st11{fill:url(#SVGID_00000013900052719161036430000008442924323715306892_);}
	.st12{fill:url(#SVGID_00000069384593177564708890000012081764718188304562_);}
	.st13{fill:url(#SVGID_00000053515064121401444570000001450285801770179202_);}
	.st14{fill:url(#SVGID_00000063598012569865326820000016476761378822544827_);}
	.st15{fill:#69636B;}
	.st16{fill:url(#SVGID_00000097483469904734936830000002230065452646823103_);}
	.st17{fill:url(#SVGID_00000026165196422335304350000001401408735174546357_);}
	.st18{fill:url(#SVGID_00000077288464764172256030000009657805740622135979_);}
	.st19{fill:url(#SVGID_00000137100862096609474830000000145868199888897682_);}
	.st20{fill:url(#SVGID_00000132046759406913984290000008263736520403874444_);}
	.st21{fill:url(#SVGID_00000046332326459599046810000009569313195636382900_);}
	.st22{fill:url(#SVGID_00000047749755744161327310000013959084213347938716_);}
	.st23{fill:url(#SVGID_00000062175390767373158120000003866330191549694344_);}
	.st24{fill:url(#SVGID_00000036955563360682623500000006331626721561707935_);}
	.st25{fill:url(#SVGID_00000111887001562118220910000010990966323045925277_);}
	.st26{fill:#E6DBE3;}
	.st27{fill:#CCB7D8;}
	.st28{fill:#EBBDD4;}
	.st29{fill:#A7C2A6;}
	.st30{fill:#E6C1D9;}
	.st31{fill:#D2DCAA;}
	.st32{fill:#C9C6DB;}
	.st33{fill:#D2D8DB;}
	.st34{fill:#DEE8C7;}
	.st35{fill:#D5CFDD;}
	.st36{fill:#CBD8CE;}
	.st37{fill:#BFD3AE;}
	.st38{fill:#BECCBB;}
	.st39{fill:#ECE5E2;}
	.st40{fill:#90A0CC;}
	.st41{fill:#E7B4D0;}
	.st42{fill:#D1DAC4;}
	.st43{fill:#EDCDD4;}
	.st44{fill:#E2E2BC;}
	.st45{fill:#ECD2D3;}
	.st46{fill:#A49CC7;}
	.st47{fill:#A1A3A1;}
	.st48{fill:#BCD0B1;}
	.st49{fill:#D0C5A4;}
	.st50{fill:#C5D294;}
	.st51{fill:#D87EA6;}
	.st52{fill:#E0C4DD;}
	.st53{fill:#B7AFD2;}
	.st54{fill:#E0E5D9;}
	.st55{fill:#E3D6C7;}
	.st56{fill:#E5A2BF;}
	.st57{fill:#EECDDC;}
	.st58{fill:#CF9CC6;}
	.st59{fill:#B291C5;}
	.st60{fill:#D4DBB4;}
	.st61{fill:#C6B1D6;}
	.st62{fill:#C0C4DF;}
	.st63{fill:#BDD0BF;}
	.st64{fill:#E0799C;}
	.st65{fill:#EA98AF;}
	.st66{fill:#D06F96;}
	.st67{fill:#C6608B;}
	.st68{fill:#B7587F;}
	.st69{fill:#D7CAB6;}
	.st70{fill:#94A38E;}
	.st71{fill:#AFC7A6;}
	.st72{fill:#E2C9B9;}
	.st73{fill:#CF6C96;}
	.st74{fill:#BFD588;}
	.st75{fill:#BCCD82;}
	.st76{fill:#CCCCD9;}
	.st77{fill:#DFCEE0;}
	.st78{fill:#B5CBD8;}
	.st79{fill:#D6ADD9;}
	.st80{fill:#C0A0D1;}
	.st81{fill:#A285C0;}
	.st82{fill:#C6CACF;}
	.st83{fill:#E4A5BE;}
	.st84{fill:#D491BF;}
	.st85{fill:#E2AAC7;}
	.st86{fill:#BFBDD9;}
	.st87{fill:#9CAAD0;}
	.st88{fill:#A4ADA0;}
	.st89{fill:#9F9EA0;}
	.st90{fill:#B6B1D3;}
	.st91{fill:#B5B3D5;}
	.st92{fill:#9A87BF;}
	.st93{fill:#84A669;}
	.st94{fill:#7A9F74;}
	.st95{fill:#8CAD7C;}
	.st96{fill:#94B473;}
	.st97{fill:#AB5C8B;}
	.st98{fill:url(#SVGID_00000176737912318076976920000006649599593019814077_);}
	.st99{fill:#E0BBB4;}
	.st100{fill:#CDD398;}
	.st101{fill:url(#SVGID_00000157300069377065229350000008208210100160292771_);}
	.st102{fill:#E1B4C4;}
	.st103{fill:#73996E;}
	.st104{fill:#678D62;}
	.st105{fill:#9CBA96;}
	.st106{fill:#DB93B5;}
	.st107{fill:#A7A7D0;}
	.st108{fill:#BC74A5;}
	.st109{fill:#C592BD;}
	.st110{fill:#B6BE84;}
	.st111{fill:#BA97CB;}
	.st112{fill:#919BC8;}
	.st113{fill:#CDD9BC;}
	.st114{fill:#A5BD7C;}
	.st115{fill:#9AB589;}
	.st116{fill:#9BBC93;}
	.st117{fill:#B081AE;}
	.st118{fill:#A182B5;}
	.st119{fill:#848CBF;}
	.st120{fill:#697FBB;}
	.st121{fill:#4F6AAF;}
	.st122{fill:#6477B7;}
	.st123{fill:#9291C7;}
	.st124{fill:#5779B9;}
	.st125{fill:#DE8BAD;}
	.st126{fill:#B3C284;}
	.st127{fill:#B6B37C;}
	.st128{fill:#869E65;}
	.st129{fill:#93B7C7;}
	.st130{fill:#AAC3D8;}
	.st131{fill:#92B0D3;}
	.st132{fill:#8974AD;}
	.st133{fill:#A16BA0;}
	.st134{fill:#6F6CAE;}
	.st135{fill:#5061AA;}
	.st136{fill:#8486BF;}
	.st137{fill:#997DB6;}
	.st138{fill:#8096CD;}
	.st139{fill:url(#SVGID_00000180358617814448940500000014728108053304007072_);}
	.st140{fill:#C18ABF;}
	.st141{fill:#B5CF73;}
	.st142{fill:#F7F4F0;}
	.st143{fill:#A394C5;}
	.st144{fill:#82629F;}
	.st145{fill:#6A5D92;}
	.st146{fill:#5E4C82;}
	.st147{fill:#8D7EBA;}
	.st148{fill:#786CAC;}
	.st149{fill:#7EAC9D;}
	.st150{fill:#8AB3A5;}
	.st151{fill:#719FA1;}
	.st152{fill:#72A18B;}
	.st153{fill:#649487;}
	.st154{fill:#6A9D8E;}
	.st155{fill:url(#SVGID_00000085963664190146619510000003096028334376859318_);}
	.st156{fill:#AB6A9D;}
	.st157{fill:#9C6CA7;}
	.st158{fill:#395E59;}
	.st159{fill:#476D51;}
	.st160{fill:#507763;}
	.st161{fill:#4C6F4D;}
	.st162{fill:#728EC8;}
	.st163{fill:#A8B3D3;}
	.st164{fill:#628859;}
	.st165{fill:#5A815C;}
	.st166{fill:#4E7456;}
	.st167{fill:#E4A4AB;}
	.st168{fill:#749C72;}
	.st169{fill:#6B9674;}
	.st170{fill:#59876A;}
	.st171{fill:url(#SVGID_00000137128911469969287620000001847777844868220077_);}
	.st172{fill:url(#SVGID_00000182506412095267258320000014529486220793061525_);}
	.st173{fill:url(#SVGID_00000078044637210702297610000010118934655012942501_);}
	.st174{fill:#395E5D;}
	.st175{fill:#9C9B66;}
	.st176{fill:#9D5869;}
	.st177{fill:#854B5E;}
	.st178{fill:#57877C;}
	.st179{fill:#548375;}
	.st180{fill:#8B8A54;}
	.st181{fill:#9B9962;}
	.st182{fill:url(#SVGID_00000181068415878993390000000003066832198860201621_);}
	.st183{fill:#84854D;}
	.st184{fill:#707F48;}
</style>
<g>
	<path class="st0" d="M37.5,59.7l0.3-0.4l1.1,0.3l-0.3,0.3l0,1.9c0,0.4,0,0.7,0,1c0,0.3,0,0.7,0,1l0,0.4c0,0.1,0,0.2,0,0.2
		c0,0.1,0,0.1,0.1,0.1c0,0,0,0,0,0c0,0,0-0.1,0-0.1l0.2-0.8l0.1,0c0,0.2,0,0.3,0,0.4v0.2l0,0.3c0,0.2,0.1,0.4,0.1,0.4
		c0,0,0.1,0.1,0.1,0.1c0,0,0,0,0,0c0,0,0,0,0,0c0,0,0,0,0.1,0c0,0,0,0,0,0.1c0,0.2-0.1,0.5-0.2,0.7c-0.1,0.3-0.3,0.5-0.5,0.5
		c-0.2,0-0.3-0.1-0.5-0.3c-0.1-0.1-0.1-0.2-0.2-0.3c-0.1-0.1-0.1-0.2-0.2-0.3c-0.1-0.2-0.2-0.6-0.3-1.1c0-0.2-0.1-0.5-0.1-0.7
		c0-0.2,0-0.5,0-0.8c0-0.2,0-0.5,0-0.8l0-1.8H34v2.5c0,0.5,0,0.8-0.1,1.1c0,0.3-0.1,0.7-0.2,0.9c-0.2,0.5-0.6,1.1-1.1,1.7l-0.1,0
		c0.1-0.2,0.2-0.5,0.3-0.8c0.1-0.3,0.1-0.5,0.1-0.8c0-0.2,0.1-0.5,0.1-0.8c0-0.1,0-0.3,0-0.4v-4h1v0.3H37.5z M33.9,65L33.9,65
		c0.1,0,0.1,0,0.1,0l0.4,0c0.2,0,0.4,0,0.6,0l0.4,0v-1.1h-0.3v0.3h-0.8v-2.7h0.8v0.2h0.3V61c-0.3,0-0.5,0-0.7,0c-0.2,0-0.5,0-0.7,0
		l0-0.1c0.2,0,0.5-0.1,0.7-0.1c0.2,0,0.5-0.1,0.7-0.1c0.5-0.1,0.9-0.3,1.3-0.4l0.8,0.6c-0.2,0-0.4,0.1-0.6,0.1l-0.6,0v0.7h0.3
		l0.2-0.3l0.8,0.3l-0.2,0.2v2.2h-0.8v-0.3h-0.3v1l0.6,0c0-0.2-0.1-0.4-0.2-0.6l0.1-0.1c0.3,0.1,0.5,0.2,0.7,0.3
		c0.2,0.1,0.3,0.3,0.3,0.5c0.1,0.2,0,0.4,0,0.5c-0.1,0.1-0.2,0.1-0.3,0.2c-0.2,0-0.4,0-0.5-0.3c0-0.1,0-0.2,0-0.3
		c-0.4,0.1-0.8,0.2-1.3,0.3c-0.4,0.1-0.8,0.2-1.3,0.3L33.9,65z M35.5,63.5v-1.3h-0.3v1.3H35.5z M36.2,63.5h0.3v-1.3h-0.3V63.5z"/>
	<path class="st0" d="M43.4,62.8c0,0.4-0.4,0.8-0.8,0.8c-0.4,0-0.8-0.4-0.8-0.8c0-0.4,0.4-0.8,0.8-0.8C43.1,62,43.4,62.4,43.4,62.8z
		"/>
	<path class="st0" d="M48.2,59.4c-0.1,0.2-0.2,0.3-0.2,0.4c-0.1,0.2-0.2,0.3-0.3,0.4c-0.2,0.3-0.4,0.6-0.6,0.7l-0.3,0.2h0.9v5h-1.1
		v-4.9l-0.1,0.1l-0.2,0.1c-0.1,0.1-0.2,0.2-0.3,0.2l-0.1-0.1c0.2-0.3,0.4-0.6,0.5-1c0.2-0.4,0.3-0.8,0.4-1.1l0-0.2H48.2z M48,60.4
		h2.1l-0.1,0c0,0,0,0-0.1,0c0,0-0.1-0.1-0.1-0.1l0-0.2c0-0.2-0.1-0.3-0.2-0.4l-0.1-0.1l0-0.1c0.2,0,0.5,0,0.7,0
		c0.2,0,0.4,0.1,0.6,0.2c0.1,0.1,0.2,0.2,0.2,0.4c0,0.1,0,0.2-0.1,0.2c0,0-0.1,0-0.1,0.1c0,0,0,0-0.1,0l-0.1,0h1.9v0.5H48V60.4z
		 M49.6,63.3v0.2H51l0.3-0.3l1.2,0.2l-0.3,0.3v2.5h-1.1v-0.5h-1.4v0.4h-1.1v-2.9H49.6z M52.2,62.9h-3.7v-0.5h3.7L52.2,62.9z
		 M52.2,61.9h-3.7l0-0.5h3.7V61.9z M51.1,65.3V64h-1.4v1.3H51.1z"/>
	<path class="st0" d="M56.7,62.8c0,0.4-0.4,0.8-0.8,0.8c-0.4,0-0.8-0.4-0.8-0.8c0-0.4,0.4-0.8,0.8-0.8C56.4,62,56.7,62.4,56.7,62.8z
		"/>
	<path class="st0" d="M62.3,62.2v-0.8h0.2l0.5-0.5c0.2-0.2,0.3-0.4,0.5-0.5h-3.5v-0.5h3.9l0.4-0.4l1.3,0.3c0,0-0.1,0-0.1,0.1
		l-0.1,0.1c-0.1,0.1-0.1,0.1-0.2,0.1c0,0,0,0-0.1,0.1l-0.2,0.2c-0.1,0.1-0.2,0.2-0.3,0.2c-0.1,0.1-0.2,0.2-0.3,0.2
		c-0.2,0.1-0.3,0.2-0.6,0.4l-0.6,0.3h0.2v0.8h2.4v0.5h-2.4v2.7c0,0.1,0,0.1,0,0.2c0,0,0,0.1,0,0.1c0,0,0,0,0,0.1l0,0c0,0,0,0,0,0
		c0,0,0,0,0,0c0,0.1-0.1,0.1-0.3,0.2c0,0-0.1,0-0.2,0.1c0,0-0.1,0-0.1,0l-0.4,0.1c-0.1,0-0.3,0-0.4,0H62c0,0-0.1,0-0.1,0
		c-0.1,0-0.1,0-0.1,0c0,0,0,0,0-0.1v-0.1c0-0.2-0.1-0.4-0.3-0.4c-0.1,0-0.2-0.1-0.3-0.1l-0.3-0.1v-0.1l0.6,0c0.2,0,0.4,0,0.6,0
		c0.2,0,0.3-0.1,0.3-0.3v-2.4h-2.9v-0.5H62.3z"/>
</g>
<g>
	<path class="st0" d="M3.8,56.2v-0.3c0.3,0,0.6-0.1,0.8-0.1c0.2-0.1,0.3-0.2,0.3-0.4C5,55.2,5,54.9,5,54.5V47c0-0.4,0-0.7-0.1-0.8
		s-0.2-0.3-0.4-0.4c-0.2-0.1-0.4-0.1-0.8-0.1v-0.3c0.2,0,0.5,0,0.9,0c0.4,0,0.8,0,1.2,0c0.4,0,0.8,0,1.1,0c0.4,0,0.7,0,0.9,0v0.3
		c-0.3,0-0.6,0-0.8,0.1c-0.2,0.1-0.3,0.2-0.4,0.4S6.8,46.6,6.8,47v7.6c0,0.4,0,0.6,0.1,0.8c0.1,0.2,0.2,0.3,0.4,0.4
		c0.2,0.1,0.4,0.1,0.8,0.1v0.3c-0.2,0-0.6,0-0.9,0s-0.7,0-1.1,0c-0.4,0-0.8,0-1.2,0S4.1,56.1,3.8,56.2z M6.1,50.9v-0.3h6v0.3H6.1z
		 M10.2,56.2v-0.3c0.3,0,0.6-0.1,0.8-0.1c0.2-0.1,0.3-0.2,0.3-0.4c0.1-0.2,0.1-0.5,0.1-0.8V47c0-0.4,0-0.7-0.1-0.8
		c-0.1-0.2-0.2-0.3-0.4-0.4c-0.2-0.1-0.4-0.1-0.8-0.1v-0.3c0.3,0,0.6,0,1,0c0.4,0,0.8,0,1.1,0c0.4,0,0.8,0,1.2,0c0.4,0,0.7,0,0.9,0
		v0.3c-0.3,0-0.6,0-0.8,0.1c-0.2,0.1-0.3,0.2-0.4,0.4c-0.1,0.2-0.1,0.5-0.1,0.8v7.6c0,0.4,0,0.6,0.1,0.8c0.1,0.2,0.2,0.3,0.4,0.4
		c0.2,0.1,0.4,0.1,0.8,0.1v0.3c-0.2,0-0.5,0-0.9,0c-0.4,0-0.8,0-1.2,0c-0.4,0-0.8,0-1.1,0C10.8,56.1,10.5,56.1,10.2,56.2z"/>
	<path class="st0" d="M22.6,48.3v0.3c-0.2,0-0.4,0.1-0.5,0.3c-0.2,0.2-0.3,0.5-0.5,0.9l-2.4,6.4l-0.4,0.4l-3-7
		c-0.2-0.4-0.4-0.6-0.6-0.7c-0.2-0.1-0.3-0.1-0.4-0.1v-0.3c0.3,0,0.5,0.1,0.8,0.1c0.3,0,0.6,0,0.9,0c0.3,0,0.7,0,1,0
		c0.4,0,0.7,0,1-0.1v0.3c-0.2,0-0.5,0-0.6,0.1c-0.2,0-0.3,0.1-0.4,0.3c-0.1,0.2,0,0.4,0.1,0.8l1.9,4.6l-0.1,0l1.5-4.1
		c0.2-0.4,0.2-0.7,0.2-1c0-0.2-0.1-0.4-0.3-0.6s-0.5-0.2-0.8-0.2v-0.3c0.2,0,0.3,0,0.5,0c0.1,0,0.3,0,0.4,0c0.1,0,0.3,0,0.4,0
		c0.2,0,0.4,0,0.6,0C22.3,48.3,22.5,48.3,22.6,48.3z M19.2,56.1l-0.5,1.4c-0.1,0.3-0.2,0.5-0.3,0.6c-0.1,0.2-0.2,0.3-0.3,0.4
		c-0.2,0.1-0.3,0.2-0.6,0.3C17.2,59,17,59,16.8,59c-0.2,0-0.4,0-0.6-0.1c-0.2-0.1-0.3-0.2-0.5-0.3c-0.1-0.2-0.2-0.3-0.2-0.6
		c0-0.3,0.1-0.5,0.3-0.6c0.2-0.2,0.4-0.2,0.7-0.2c0.3,0,0.5,0.1,0.6,0.2c0.2,0.1,0.3,0.3,0.3,0.6c0,0.2,0,0.3-0.1,0.5
		c-0.1,0.1-0.2,0.2-0.4,0.3c0,0,0.1,0,0.1,0c0,0,0.1,0,0.1,0c0.3,0,0.5-0.1,0.8-0.3c0.2-0.2,0.4-0.5,0.6-0.9l0.5-1.5L19.2,56.1z"/>
	<path class="st0" d="M25.3,56.3c-0.4,0-0.8-0.1-1.1-0.2c-0.3-0.2-0.5-0.4-0.7-0.7c-0.2-0.3-0.2-0.6-0.2-1c0-0.4,0.1-0.8,0.3-1.1
		c0.2-0.3,0.5-0.5,0.8-0.7c0.3-0.2,0.7-0.3,1-0.4s0.7-0.2,1-0.3c0.3-0.1,0.6-0.2,0.8-0.4s0.3-0.3,0.3-0.6v-1c0-0.4-0.1-0.7-0.2-0.9
		c-0.1-0.2-0.3-0.4-0.5-0.5c-0.2-0.1-0.4-0.1-0.7-0.1c-0.2,0-0.5,0-0.7,0.1c-0.3,0.1-0.5,0.2-0.6,0.4c0.2,0.1,0.4,0.2,0.6,0.4
		s0.2,0.4,0.2,0.7c0,0.3-0.1,0.5-0.3,0.7c-0.2,0.2-0.4,0.2-0.7,0.2c-0.3,0-0.5-0.1-0.7-0.3c-0.2-0.2-0.2-0.4-0.2-0.7
		c0-0.3,0.1-0.5,0.2-0.7s0.3-0.3,0.5-0.5c0.2-0.2,0.6-0.3,0.9-0.4c0.4-0.1,0.8-0.2,1.3-0.2c0.4,0,0.8,0,1.1,0.1s0.6,0.3,0.8,0.5
		c0.3,0.2,0.4,0.5,0.5,0.9c0.1,0.4,0.1,0.8,0.1,1.3V55c0,0.3,0,0.4,0.1,0.5c0.1,0.1,0.2,0.2,0.3,0.2c0.1,0,0.2,0,0.3-0.1
		c0.1,0,0.2-0.1,0.3-0.2l0.2,0.3c-0.2,0.2-0.4,0.3-0.6,0.4c-0.2,0.1-0.5,0.2-0.8,0.2c-0.3,0-0.6-0.1-0.8-0.2
		c-0.2-0.1-0.4-0.2-0.4-0.4c-0.1-0.2-0.1-0.4-0.1-0.7c-0.3,0.4-0.6,0.8-0.9,1C26.2,56.2,25.8,56.3,25.3,56.3z M26,55.5
		c0.3,0,0.6-0.1,0.8-0.2c0.2-0.2,0.5-0.4,0.7-0.7v-3c-0.1,0.2-0.3,0.3-0.5,0.4c-0.2,0.1-0.4,0.2-0.7,0.4c-0.2,0.1-0.5,0.3-0.7,0.4
		c-0.2,0.2-0.4,0.4-0.5,0.6c-0.1,0.2-0.2,0.6-0.2,0.9c0,0.4,0.1,0.7,0.3,0.9C25.4,55.4,25.7,55.5,26,55.5z"/>
	<path class="st0" d="M34.7,48.1c0.3,0,0.7,0,1,0.1c0.3,0.1,0.6,0.2,0.8,0.4c0.2,0.2,0.4,0.3,0.6,0.5c0.1,0.2,0.2,0.4,0.2,0.7
		c0,0.3-0.1,0.5-0.3,0.7s-0.4,0.3-0.7,0.3s-0.5-0.1-0.7-0.2c-0.2-0.2-0.3-0.4-0.3-0.7c0-0.3,0.1-0.5,0.2-0.6
		c0.2-0.2,0.3-0.3,0.5-0.3c-0.1-0.2-0.3-0.3-0.5-0.4c-0.2-0.1-0.5-0.2-0.7-0.2c-0.3,0-0.5,0.1-0.8,0.2c-0.2,0.1-0.5,0.4-0.7,0.7
		c-0.2,0.3-0.3,0.7-0.5,1.1c-0.1,0.5-0.2,1-0.2,1.7c0,0.9,0.1,1.5,0.3,2s0.5,0.9,0.8,1.1c0.3,0.2,0.7,0.3,1.1,0.3
		c0.2,0,0.5,0,0.8-0.1s0.5-0.2,0.7-0.5c0.2-0.2,0.4-0.5,0.6-0.9l0.3,0.1c-0.1,0.3-0.3,0.7-0.5,1c-0.2,0.3-0.6,0.6-0.9,0.9
		c-0.4,0.2-0.9,0.3-1.4,0.3c-0.6,0-1.2-0.2-1.7-0.5c-0.5-0.3-0.9-0.8-1.2-1.4c-0.3-0.6-0.5-1.3-0.5-2.2c0-0.9,0.2-1.6,0.5-2.2
		c0.3-0.6,0.7-1.1,1.3-1.5C33.4,48.3,34,48.1,34.7,48.1z"/>
	<path class="st0" d="M41.1,48.1v6.6c0,0.4,0.1,0.7,0.3,0.9c0.2,0.2,0.4,0.2,0.8,0.2v0.3c-0.2,0-0.4,0-0.8,0s-0.7,0-1.1,0
		c-0.4,0-0.7,0-1.1,0s-0.6,0-0.8,0v-0.3c0.4,0,0.7-0.1,0.8-0.2c0.2-0.2,0.3-0.4,0.3-0.9V50c0-0.5-0.1-0.8-0.2-1
		c-0.2-0.2-0.4-0.3-0.9-0.3v-0.3c0.3,0,0.6,0,0.9,0c0.3,0,0.7,0,1-0.1C40.5,48.3,40.8,48.2,41.1,48.1z M40.1,44.5
		c0.3,0,0.6,0.1,0.8,0.3s0.3,0.4,0.3,0.7s-0.1,0.5-0.3,0.7s-0.5,0.3-0.8,0.3s-0.6-0.1-0.8-0.3S39,45.8,39,45.5s0.1-0.5,0.3-0.7
		S39.8,44.5,40.1,44.5z"/>
	<path class="st0" d="M48.2,48.1c0.4,0,0.7,0.1,1,0.2c0.3,0.1,0.5,0.3,0.6,0.4c0.2,0.2,0.3,0.4,0.4,0.7s0.1,0.7,0.1,1.2v4.1
		c0,0.4,0.1,0.7,0.3,0.9s0.4,0.2,0.8,0.2v0.3c-0.2,0-0.4,0-0.8,0s-0.7,0-1.1,0c-0.3,0-0.7,0-1,0c-0.3,0-0.6,0-0.8,0v-0.3
		c0.3,0,0.6-0.1,0.7-0.2c0.1-0.2,0.2-0.4,0.2-0.9v-4.5c0-0.3,0-0.6-0.1-0.8c-0.1-0.2-0.2-0.4-0.3-0.6s-0.4-0.2-0.7-0.2
		c-0.4,0-0.7,0.1-1,0.3c-0.3,0.2-0.5,0.5-0.7,0.9c-0.2,0.4-0.3,0.8-0.3,1.2v3.7c0,0.4,0.1,0.7,0.2,0.9s0.4,0.2,0.7,0.2v0.3
		c-0.2,0-0.4,0-0.7,0s-0.7,0-1,0c-0.3,0-0.7,0-1.1,0s-0.7,0-0.8,0v-0.3c0.4,0,0.7-0.1,0.8-0.2c0.2-0.2,0.3-0.4,0.3-0.9V50
		c0-0.5-0.1-0.8-0.2-1c-0.2-0.2-0.4-0.3-0.9-0.3v-0.3c0.3,0,0.6,0,0.9,0c0.3,0,0.7,0,1-0.1c0.3,0,0.6-0.1,0.8-0.2v1.7
		c0.3-0.6,0.6-1.1,1.1-1.3S47.7,48.1,48.2,48.1z"/>
	<path class="st0" d="M54.7,45.8v2.5h2.1v0.3h-2.1v6c0,0.4,0.1,0.7,0.2,0.9s0.4,0.3,0.7,0.3c0.3,0,0.5-0.1,0.7-0.3
		c0.2-0.2,0.4-0.6,0.5-1.1l0.3,0.1c-0.1,0.5-0.3,1-0.6,1.4c-0.3,0.4-0.8,0.6-1.4,0.6c-0.3,0-0.6,0-0.9-0.1s-0.4-0.2-0.6-0.4
		c-0.2-0.2-0.4-0.5-0.5-0.8c-0.1-0.3-0.1-0.8-0.1-1.3v-5.1h-1.4v-0.3h1.4v-2.2c0.3,0,0.6,0,0.9-0.1S54.5,45.9,54.7,45.8z"/>
	<path class="st0" d="M60.1,44.2v5.5c0.3-0.6,0.6-1.1,1.1-1.3s1-0.4,1.5-0.4c0.4,0,0.7,0.1,1,0.2c0.3,0.1,0.5,0.3,0.6,0.4
		c0.2,0.2,0.3,0.4,0.4,0.7c0.1,0.3,0.1,0.7,0.1,1.2v4.1c0,0.4,0.1,0.7,0.3,0.9c0.2,0.2,0.4,0.2,0.8,0.2v0.3c-0.2,0-0.5,0-0.8,0
		c-0.4,0-0.7,0-1.1,0c-0.4,0-0.7,0-1,0s-0.6,0-0.8,0v-0.3c0.3,0,0.6-0.1,0.7-0.2c0.1-0.2,0.2-0.4,0.2-0.9v-4.5c0-0.3,0-0.6-0.1-0.8
		c-0.1-0.2-0.2-0.4-0.3-0.6c-0.2-0.1-0.4-0.2-0.7-0.2c-0.4,0-0.7,0.1-1,0.3c-0.3,0.2-0.5,0.5-0.7,0.9c-0.2,0.4-0.3,0.8-0.3,1.3v3.7
		c0,0.4,0.1,0.7,0.2,0.9s0.4,0.2,0.7,0.2v0.3c-0.2,0-0.4,0-0.8,0c-0.3,0-0.7,0-1,0c-0.4,0-0.7,0-1.1,0c-0.4,0-0.6,0-0.8,0v-0.3
		c0.4,0,0.7-0.1,0.8-0.2c0.2-0.2,0.3-0.4,0.3-0.9v-8.7c0-0.5-0.1-0.8-0.2-1c-0.2-0.2-0.4-0.3-0.9-0.3v-0.3c0.3,0,0.6,0,0.9,0
		c0.3,0,0.7,0,1-0.1C59.6,44.4,59.8,44.3,60.1,44.2z"/>
</g>
<g>
	<path class="st0" d="M76.1,56.8c0,0.4-0.1,0.8-0.1,1.2c0,0.4,0,0.7,0,0.9c0,0.2,0,0.5,0,0.7c0,0.2,0,0.4,0,0.5h-0.4
		c-0.1-0.7-0.2-1.3-0.4-1.7c-0.2-0.4-0.4-0.7-0.7-0.9c-0.3-0.2-0.8-0.3-1.4-0.3h-0.8c-0.3,0-0.6,0-0.7,0.1c-0.2,0.1-0.3,0.2-0.3,0.3
		s-0.1,0.4-0.1,0.8V66c0,0.4,0,0.7,0.1,0.8c0.1,0.2,0.2,0.3,0.5,0.4c0.2,0.1,0.6,0.1,1,0.1v0.3c-0.3,0-0.6,0-1.1,0
		c-0.4,0-0.9,0-1.4,0c-0.4,0-0.8,0-1.2,0c-0.4,0-0.7,0-0.9,0v-0.3c0.3,0,0.6-0.1,0.8-0.1c0.2-0.1,0.3-0.2,0.3-0.4
		c0.1-0.2,0.1-0.5,0.1-0.8v-7.6c0-0.4,0-0.7-0.1-0.8s-0.2-0.3-0.4-0.4c-0.2-0.1-0.4-0.1-0.8-0.1v-0.3c0.4,0,0.8,0,1.2,0
		c0.4,0,0.9,0,1.3,0c0.4,0,0.8,0,1.2,0c0.4,0,0.7,0,0.9,0c0.5,0,1,0,1.6,0C75.1,56.9,75.6,56.9,76.1,56.8z M73.7,62.2v0.3h-3v-0.3
		H73.7z M74.1,60.2c0,0.6-0.1,1-0.1,1.3c0,0.3,0,0.6,0,0.8s0,0.5,0,0.8c0,0.3,0,0.7,0.1,1.3h-0.4c0-0.3-0.1-0.7-0.2-1
		c-0.1-0.3-0.2-0.6-0.4-0.8c-0.2-0.2-0.5-0.3-1-0.3v-0.3c0.3,0,0.6-0.1,0.8-0.2c0.2-0.1,0.3-0.3,0.4-0.5c0.1-0.2,0.2-0.4,0.2-0.7
		s0.1-0.4,0.1-0.6H74.1z"/>
	<path class="st0" d="M79.5,55.7v10.5c0,0.4,0.1,0.7,0.3,0.9c0.2,0.2,0.4,0.2,0.8,0.2v0.3c-0.2,0-0.5,0-0.8,0s-0.7,0-1.1,0
		c-0.4,0-0.7,0-1.1,0s-0.6,0-0.8,0v-0.3c0.4,0,0.7-0.1,0.8-0.2c0.2-0.2,0.3-0.4,0.3-0.9v-8.7c0-0.5-0.1-0.8-0.2-1s-0.4-0.3-0.9-0.3
		v-0.3c0.3,0,0.6,0,0.9,0c0.3,0,0.7,0,1-0.1C78.9,55.8,79.2,55.8,79.5,55.7z"/>
	<path class="st0" d="M85.1,59.6c0.7,0,1.3,0.1,1.8,0.4c0.5,0.3,1,0.7,1.3,1.3c0.3,0.6,0.5,1.4,0.5,2.4c0,1-0.2,1.8-0.5,2.4
		c-0.3,0.6-0.7,1-1.3,1.3s-1.1,0.4-1.8,0.4c-0.7,0-1.3-0.1-1.8-0.4c-0.5-0.3-1-0.7-1.3-1.3s-0.5-1.4-0.5-2.4c0-1,0.2-1.8,0.5-2.4
		c0.3-0.6,0.7-1.1,1.3-1.3C83.8,59.7,84.4,59.6,85.1,59.6z M85.1,59.9c-0.5,0-1,0.3-1.3,0.9c-0.3,0.6-0.5,1.6-0.5,2.9
		c0,1.4,0.2,2.3,0.5,2.9c0.3,0.6,0.8,0.9,1.3,0.9c0.5,0,0.9-0.3,1.3-0.9s0.5-1.6,0.5-2.9c0-1.4-0.2-2.3-0.5-2.9
		C86,60.2,85.6,59.9,85.1,59.9z"/>
	<path class="st0" d="M94.6,59.6c0.3,0,0.5,0.1,0.8,0.2c0.2,0.1,0.4,0.3,0.5,0.5c0.1,0.2,0.2,0.4,0.2,0.6c0,0.3-0.1,0.5-0.3,0.8
		c-0.2,0.2-0.4,0.3-0.7,0.3c-0.3,0-0.5-0.1-0.6-0.2s-0.3-0.4-0.3-0.6c0-0.2,0.1-0.4,0.2-0.6c0.1-0.2,0.3-0.3,0.4-0.4
		C94.6,60,94.5,60,94.3,60c-0.3,0-0.5,0.1-0.8,0.3c-0.2,0.2-0.4,0.4-0.6,0.6s-0.3,0.5-0.4,0.8c-0.1,0.3-0.1,0.6-0.1,0.8v3.5
		c0,0.5,0.1,0.8,0.4,1c0.3,0.2,0.7,0.3,1.1,0.3v0.3c-0.2,0-0.6,0-1,0s-0.9,0-1.4,0c-0.4,0-0.7,0-1.1,0s-0.6,0-0.8,0v-0.3
		c0.4,0,0.7-0.1,0.8-0.2c0.2-0.2,0.3-0.4,0.3-0.9v-4.8c0-0.5-0.1-0.8-0.2-1c-0.2-0.2-0.4-0.3-0.9-0.3v-0.3c0.3,0,0.6,0,0.9,0
		c0.3,0,0.7,0,1-0.1c0.3,0,0.6-0.1,0.8-0.2v1.8c0.1-0.3,0.3-0.6,0.5-0.9c0.2-0.3,0.4-0.5,0.7-0.7S94.3,59.6,94.6,59.6z"/>
	<path class="st0" d="M99.4,59.6v6.6c0,0.4,0.1,0.7,0.3,0.9c0.2,0.2,0.4,0.2,0.8,0.2v0.3c-0.2,0-0.4,0-0.8,0s-0.7,0-1.1,0
		c-0.4,0-0.7,0-1.1,0s-0.6,0-0.8,0v-0.3c0.4,0,0.7-0.1,0.8-0.2c0.2-0.2,0.3-0.4,0.3-0.9v-4.8c0-0.5-0.1-0.8-0.2-1
		c-0.2-0.2-0.4-0.3-0.9-0.3v-0.3c0.3,0,0.6,0,0.9,0c0.3,0,0.7,0,1-0.1C98.8,59.7,99.1,59.7,99.4,59.6z M98.4,55.9
		c0.3,0,0.6,0.1,0.8,0.3s0.3,0.4,0.3,0.7s-0.1,0.5-0.3,0.7S98.8,58,98.4,58s-0.6-0.1-0.8-0.3s-0.3-0.4-0.3-0.7s0.1-0.5,0.3-0.7
		S98.1,55.9,98.4,55.9z"/>
	<path class="st0" d="M104,59.6c0.4,0,0.8,0.1,1.1,0.2s0.5,0.2,0.6,0.3c0.3,0.3,0.5,0.1,0.6-0.5h0.3c0,0.3,0,0.6,0,1
		c0,0.4,0,0.9,0,1.6h-0.3c-0.1-0.4-0.2-0.7-0.3-1.1c-0.1-0.4-0.4-0.7-0.6-0.9c-0.3-0.2-0.6-0.4-1.1-0.4c-0.3,0-0.6,0.1-0.8,0.3
		c-0.2,0.2-0.3,0.5-0.3,0.8c0,0.3,0.1,0.6,0.3,0.8c0.2,0.2,0.4,0.4,0.7,0.6s0.6,0.4,0.9,0.6c0.4,0.3,0.7,0.5,1,0.8
		c0.3,0.2,0.5,0.5,0.7,0.8c0.2,0.3,0.3,0.7,0.3,1.1c0,0.5-0.1,0.9-0.4,1.2s-0.6,0.6-1,0.7c-0.4,0.2-0.9,0.3-1.3,0.3
		c-0.2,0-0.5,0-0.7-0.1s-0.4-0.1-0.6-0.2c-0.1-0.1-0.2-0.1-0.3-0.2c-0.1-0.1-0.2-0.1-0.3-0.2c-0.1-0.1-0.2-0.1-0.3,0
		c-0.1,0.1-0.1,0.3-0.2,0.5h-0.3c0-0.3,0-0.7,0-1.2c0-0.5,0-1.1,0-1.9h0.3c0.1,0.6,0.2,1.1,0.3,1.5c0.1,0.4,0.4,0.8,0.6,1
		c0.3,0.2,0.7,0.4,1.2,0.4c0.2,0,0.4,0,0.6-0.1c0.2-0.1,0.4-0.2,0.5-0.4c0.1-0.2,0.2-0.5,0.2-0.8c0-0.4-0.2-0.8-0.5-1.1
		c-0.3-0.3-0.7-0.6-1.2-0.9c-0.3-0.2-0.7-0.5-1-0.7c-0.3-0.2-0.6-0.5-0.8-0.8c-0.2-0.3-0.3-0.7-0.3-1.1c0-0.5,0.1-0.8,0.3-1.1
		c0.2-0.3,0.5-0.5,0.9-0.7S103.6,59.6,104,59.6z"/>
	<path class="st0" d="M110.7,57.3v2.5h2.1v0.3h-2.1v6c0,0.4,0.1,0.7,0.2,0.9s0.4,0.3,0.7,0.3c0.3,0,0.5-0.1,0.7-0.3
		c0.2-0.2,0.4-0.6,0.5-1.1l0.3,0.1c-0.1,0.5-0.3,1-0.6,1.4c-0.3,0.4-0.8,0.6-1.4,0.6c-0.3,0-0.6,0-0.9-0.1s-0.4-0.2-0.6-0.4
		c-0.2-0.2-0.4-0.5-0.5-0.8c-0.1-0.3-0.1-0.8-0.1-1.3v-5.1h-1.4v-0.3h1.4v-2.2c0.3,0,0.6,0,0.9-0.1S110.5,57.4,110.7,57.3z"/>
</g>
<g>
	<path class="st0" d="M51.3,16.4L51.3,16.4c0,0-0.1,1-0.1,1.3c-0.3-0.2-0.6-0.2-0.9-0.3c-0.1,0-0.2,0-0.4,0
		C49.9,17,50.8,16.5,51.3,16.4z"/>
	<path class="st0" d="M56.6,2.4c1.2,0,1.4-0.1,2.5,0.3c0.3-0.1,0.5-0.2,0.7-0.3c0.4-0.1,1.6-0.1,2,0c0.6,0.1,1.2,0.5,1.7,1
		c0.6,0.7,0.1,0.5,1.1,0.4c1.6-0.1,3.4,1,3.7,2.6c1.3-0.1,2.6,0.8,3.2,2c0.1,0.2,0.3,0.6,0.3,0.8c1.1,0.2,1.8,0.9,1.9,2
		c1,0.5,1.5,1.7,1,2.7c-0.1,0.2-0.2,0.3-0.3,0.5l0.1,0c0.8,0.2,1.4,0.9,1.6,1.7c0.2,0.7,0,0.9-0.1,1.5c0.7,0.6,0.8,0.7,0.8,1.6
		c0,0.8,0,1-0.5,1.7c0.6,0.4,0.6,1.6,0.5,2.2c0,0.1-0.7,1.3-0.8,1.3l0.1,0c-0.2,0-0.4-0.3-0.6-0.4c-0.3-0.2-1-0.5-1.1-0.6
		c-0.2-0.2-0.3-0.5-0.5-0.7c-0.2-0.2-0.4-0.4-0.5-0.7c1.4-0.5,1.4,0.5,2.1,1c0.9-1.3,0.1-1.8-1.1-2.3c-0.9-0.3-1.4,0.4-2,0.6
		c-1.2-0.5-2.5-0.9-3.8-0.6c-0.9,0.2-1.5,0.5-2.4,0.8c-0.1,0-1.2-0.5-1.2-0.6c0-0.2,0.3-0.9,0.5-1.1c0.7,0.8,2.1,0.8,2.8-0.1
		c0.3-0.3,0.5-0.7,0.9-0.7c0.6,0,0.9,0.7,1.3,1.1c0.7,0.6,1.8,0.6,2.4-0.1c0.4-0.5,1.1-1.3,1.8-0.5c0.3,0.4,0.3,0.5,0.8,0.6
		c0.2-0.4,0.3-0.6,0.3-1.1c-0.7-1-2.4-1.1-3.3-0.2c-0.3,0.3-0.4,0.6-0.8,0.7c-0.1,0-0.2-0.1-0.3-0.1c-0.1-0.3-0.6-0.7-0.8-0.8
		c-1.3-1-2.5-0.4-3.4,0.8c-0.3,0.1-0.5,0.1-0.8,0c-0.1-0.1-0.1-0.2-0.2-0.3c-0.1-0.5-0.1-1.1-0.6-1.3c-0.4-0.2-1-0.2-1.4-0.1
		c0-0.5-0.4-1.3,0-1.4c1.5-0.2,1.2,1.7,2.9,1.5c0.7-0.1,1.3-0.7,1.7-1.3c0.1-0.1,0.3-0.2,0.5-0.2c1,0,1,1.9,2.8,1.5
		c0.9-0.2,0.9-0.8,1.4-1.3l0,0c0.5-0.2,1,0.1,1.2,0.5c0.4,0.8,0.8-1.9-1.1-1.7c-1.3,0.2-1.5,1.5-2,1.5c-0.2,0-0.7-0.6-0.8-0.8
		c-1-1.2-2.4-1-3.4,0.2c-1.4,1.7-1.5-2-3.9-0.9c-0.1,0.1-0.3,0.2-0.4,0.2c-0.1-0.1-0.5-0.5-0.5-0.7c0.2-0.2,0.8-0.4,1.1-0.7
		c0.2-0.2,0.4-0.5,0.6-0.7c0.9,0,1.1,1.5,2.5,1.5c1.4-0.1,1.6-1.4,2.4-1.4c0.6,0,0.9,0.7,1.3,1.1c0.7,0.7,1.7,0.7,2.4-0.1
		c0.2-0.2,0.3-0.4,0.5-0.6c0.4-0.5,1-1.1,0.3-1.7c-0.2,0.1-0.3,0.3-0.5,0.5c-0.5,0.4-0.6,0.3-1.1,0.9c-0.6,0.8-0.8,0.1-1.4-0.5
		c-1.2-1.3-2.8-0.8-3.7,0.6c-1,0.5-1-1-2.3-1.3c0.2-0.6,0.3-0.8,0.4-1.4c0.7,0.5,1,1.2,1.9,1.1c0.9-0.2,1-1.1,1.6-1.5
		c0.8-0.4,1.3,0.7,1.7,1.2c1.6,1.6,3.2-1.1,1.6-1.5c0,0.2,0,0.4,0,0.7c-0.1,0.1-0.1,0.2-0.1,0.2c-0.2,0-0.3,0-0.4,0
		c-0.4-0.2-0.6-1.1-1.4-1.4c-2.1-0.9-2.6,1.4-3.2,1.7c-0.1,0-0.8-0.8-0.9-0.9c-0.2-0.1-0.4-0.3-0.6-0.4c0-0.2,0.2-0.9,0.3-1
		c0.3,0,0.8,0.5,1,0.7c0.1-0.1,0.1-0.2,0.2-0.2c0.8-0.9,2.1-1.1,3.2-0.9c0.2,0,0.6,0.2,0.4,0C69.7,7.5,68,7.2,66.8,8
		c-0.2,0.1-0.4,0.5-0.6,0.4c-0.1-0.2,0.3-0.4,0-0.6c-0.2-0.2-0.6-0.2-0.9-0.2c-1-0.6-2.2-0.9-3.3-0.9c-0.5-1,0.2-1.7,0.9-2.4
		c-1.2-1.3-2.6-1.1-4-0.4c-0.5-0.3-0.7-0.6-1.5-0.6c-0.2,0-0.7,0.1-0.9,0.3c0.1,0.2,1.2,0.6,1.1,0.9c-0.6,0.2-0.1,0.3-0.8,0
		C55,3.7,53.4,3.7,52,4.9c-0.1,0.1-0.3,0.5-0.4,0.5c-0.8-0.1-0.6-0.1-0.6-0.7c-1.4-0.2-2.6,0.5-3.1,1.8c0.3,0,0.7,0.2,0.9,0.4
		c0.9-0.8,2-1.1,3.1-0.8c0.2,0.1,0.4,0.2,0.7,0.2c0.1,0,0.2-0.1,0.3-0.1C53,6.5,52.9,7.1,53,7.3c0,0.2,0.1,0.4,0.2,0.6l0,0
		c-0.2-0.1-0.5-0.2-0.7-0.3c-0.7-0.3-1.4-0.4-2.1-0.1c-0.4,0.1-1,0.7-1.2,1c-0.1,0.2-0.4-0.1-0.5-0.2c-0.8-0.7-2.1-1-3.1-0.4
		c-0.3,0.2-0.8,0.7-0.9,1.1c0.2,0,0.5-0.2,0.7-0.2c1.1-0.2,2,0.1,2.8,0.8c0.4,0.4,0.4,0.7,0.7,0.3c0.5-0.5,1.8-1.5,2.5-1.5
		c0.2,0,0.5,0.2,0.7,0.2c-1,0.2-2,0.5-2.7,1.2c-0.2,0.2-0.3,0.4-0.5,0.6c0.2,0.2,0.3,0.2,0.4,0.4c-0.9,0.8-0.7,1-1.5,0
		c-0.9-1-2.4-1.3-3.3-0.1c-0.2,0.3-0.4,0.6-0.7,0.8l0,0c-0.1,0-0.2,0-0.4,0c-0.2-0.3-0.2-0.5-0.2-0.9c-0.1,0-0.2,0.1-0.3,0.1
		c-0.1,0.1-0.1,0.1-0.2,0.2c-0.3,0.8-0.2,0.7,0.2,1.5c0.2,0.1,0.4,0.2,0.6,0.2c1.3,0.2,1.7-1.4,2.4-1.6c0.9-0.2,1.9,2.6,3.5,1.3
		c0.8-0.6,0.4-0.6,0.8,0.6c-0.4,0.2-0.6,0.4-0.9,0.7c-1,1.3-1,0.5-1.8-0.3c-0.9-0.8-2.1-0.6-2.9,0.3c-0.8,1-0.7,1-1.4,0.2
		c-0.3-0.3-0.7-0.5-1-0.8c-0.2-0.2-0.3-0.4-0.4-0.5c-0.2,0.3-0.4,0.5-0.3,0.9c0.1,0.3,1.1,1.6,1.4,1.8c1.7,1.2,2.6-1.2,3.2-1.3
		c0.8-0.1,1.1,1.5,2.5,1.5c1.2,0,1.7-1.3,2-1.3c0.1,0,0.4,0.7,0.4,0.8c0.1,0.2,0.3,0.4,0.5,0.6c-0.1,0.1-0.7,0.1-0.9,0.2
		c-0.8,0.3-1.6,1.5-1.9,1.5c-0.5,0-1.1-1.7-2.5-1.6c-1.4,0.1-2,2-2.5,1.5l-0.1-0.1c-0.3-0.5-0.7-1-1.2-1.2c-0.8-0.3-1,0-1.6,0.2
		c-0.2,0.3-0.4,0.5-0.4,1c0.1,0.6,0.1,0.7,0.5,0.3c0.2-0.2,0.5-0.4,0.8-0.6c1,0.2,1,1.8,2.6,1.4c1-0.2,1.3-1.4,1.9-1.5
		c1-0.2,0.9,1.8,3.1,1.5c-0.2,0.5,0.1,0.7,0,1.1c-0.5,0.9-0.8,0.6-1.4,0c-0.9-1.1-2.3-1.1-3.3,0c-0.2,0.2-0.5,0.7-0.8,0.7
		c-0.3,0-0.7-0.7-1-1c-0.9-0.8-2.2-0.5-3.1,0.2c-0.3,0.8,0,0.8,0.2,1.4c0.3-0.3,1-1,1.4-1c0.9-0.2,1.1,1.4,2.5,1.4
		c1.4,0,1.5-1.3,2.2-1.4c0.7-0.2,1.1,0.8,1.7,1.2c0.7,0.4,1.8,0.2,2.2-0.5c0.6,1.5,1,0.6-0.8,1.8c-1.3-0.9-3.4-1.1-4.9-0.7
		c-0.2,0.1-1,0.4-1.1,0.4c-0.2,0-0.7-0.4-1.3-0.5c-1.3-0.1-2.9,0.5-2,2c0.6-0.8,1.3-1.2,2.3-0.9c-0.5,0.4-0.7,0.8-0.9,1.4
		c-0.4,0.2-0.8,0.3-1.1,0.5c-0.7,0.4-0.5,0.7-0.8,0.2c-0.5-0.7-1-1.8-0.7-2.7c0.3-0.9,0.5-0.2,0.1-1.2c-0.4-0.9-0.1-1.9,0.7-2.6
		c-0.2-0.6-0.3-1-0.1-1.6c0.2-0.8,0.8-1.4,1.6-1.7l0,0l0,0c0-0.1-0.3-0.6-0.4-0.7c-0.3-0.9,0-2.1,1-2.4c0.2-1.2,0.8-1.8,2-2.1
		c0.4-1.8,1.5-2.7,3.4-2.8c0-0.2,0.1-0.4,0.2-0.5c0.9-1.7,2.7-2.7,4.6-2.1c0.9-0.7,1.7-1,2.9-1c0.3,0,0.7,0.1,1,0.1
		C55.8,2.6,56.2,2.5,56.6,2.4z M64.8,4.9c-1.1,0.1-2,0.7-2.6,1.6c0.1,0,0.2-0.1,0.3-0.2c0.7-0.3,1.7-0.5,2.4,0
		c0.5,0.1,0.8,0.4,1.2,0.7c0.2-0.1,0.5-0.3,0.7-0.4c0.4-0.2,0.5-0.1,0.1-0.7C66.4,5.4,65.6,5,64.8,4.9z"/>
	<path class="st0" d="M60.7,4.5c0.9-0.1,0.4,0.1,0.2,0.8c-0.2,0.5-0.1,1,0.1,1.6c-0.3,0.2-0.7,0.1-1,0.3c-0.1-0.4-0.2-0.8-0.2-1.2
		c-2.1,0.8-2.8,2.8-2.1,4.8c0.2-0.2,0.3-0.5,0.4-0.7c1.3-2.2,4.4-2.8,6.6-1.8c0.1,0,0.2,0,0.2,0.1c0,0.1-0.4,0.9-0.4,1.1
		c-0.3,1.3-0.4,2.8-1.4,3.8c-1,1-2.7,0.7-3.2,1.5l0,0c1.1,0.1,2.3,0.9,2.7,2c0.1,0.3,0.3,1.4,0.2,1.7c0,0.1-1,0.7-1.2,0.8
		c-1,0.8-0.3,0.2-1-0.4c-0.3-0.3-0.8-0.3-1.2-0.4c-0.4-0.1-0.7-0.3-1-0.5c0,0.9,0,1.7,0,2.6c0.4-0.4,0.6-0.8,0.8-1.3
		c0.2,0.3,0.9,0.9,0.8,1.2c-0.1,0.3-1.3,1.3-1.6,1.5c0,1.1,0,2.2,0,3.3c0.1-0.2,0.2-0.4,0.3-0.6c1.2-2.5,3.1-4.4,5.5-5.8
		c0.1-0.1,0.4-0.3,0.5-0.2l0,0c-0.1,0.2-0.2,0.4-0.2,0.6L63.9,20c-0.8,1.9-1.5,3.7-2,5.8c0,0.1-0.2,0.6-0.1,0.7c0,0,0.9-1.1,1-1.3
		c1.6-1.7,3.7-3,6-3.2c1-0.1,2.6,0.2,3.4,0.9c0.5,0.3,0.5,0.4,1.1,0.5c-0.2,0-0.5,0-0.7,0c-3.7,0.2-6.4,3.1-8.2,6.1
		c-0.5,0.8-0.9,1.6-1.2,2.5l0.1-0.1c0.1-0.2,0.4-0.6,0.6-0.8c2.4-2.8,6.1-5.6,10-5.6c0.3,0,2.4,0.2,2.5,0.5c0,0.2-0.9,1.2-1,1.4
		l-3.3,4.4c-2.7,3.6-5.7,6.8-10.2,8.2c-1,0.3-2,0.5-3,0.5l-1.2,0l-1.7,0c-0.3,0-0.7,0-1,0c-2.7-0.2-5.7-1.8-7.7-3.6
		c-2.4-2.1-4.2-4.8-6.2-7.4c-0.6-0.8-1.3-1.7-1.9-2.5c-0.2-0.2-0.7-0.8-0.8-1c0.4-0.2,1.6-0.4,2-0.5c4.4-0.3,8.1,2.6,10.7,5.8
		c0.2,0.3,0.4,0.6,0.7,0.8c-0.1-0.2-0.2-0.4-0.2-0.6c-1.4-3.4-4.8-8-8.9-8.2c-0.1,0-0.6,0-0.7,0c0.1-0.1,0.3-0.2,0.5-0.3
		c3.4-2.3,7.1-0.5,9.7,2.2c0.4,0.5,0.8,1,1.2,1.4c0-0.3-0.1-0.6-0.2-0.8c-0.6-2.2-1.3-4.3-2.4-6.3c-0.2-0.4-0.5-0.7-0.7-1l0,0
		c0.7,0.4,1.4,0.7,2.1,1.2c2.5,1.7,3.4,3.3,4.6,5.9l0-3.2c0-0.7,0-1.4,0-2.1c-0.2,0-0.3,0-0.5,0c-0.3,0.3-0.3,0.9-0.5,1.3l0,0
		c-0.2-0.2-0.7-0.8-0.7-1c0.1-1.1,0.7-1.6,1.8-1.4c0-0.4,0-0.9,0-1.3c-0.4,0.1-0.8,0.2-1.1,0.3c-1.3,0.3-1.3,0.4-1.6,1.7
		c-0.2-0.1-0.3-0.3-0.5-0.4c-0.5-0.4-1.1-0.6-1.3-1.3c-0.3-0.8,0-1.5,0.4-2.2c0.2-0.4,0.4-0.3,0.1-0.6c-2-1.4-1.3-3.7-2.7-4.9
		c0.1-0.1,0.2-0.1,0.2-0.2c1.6-1.1,3.8-0.9,5.4,0.1c0.1,0.1,0.3,0.2,0.4,0.3c-0.1-0.3-0.1-0.6-0.1-1c-2.7-0.6-1.6-3.5-2.8-4.4
		c0.3-0.2,0.6-0.2,0.9-0.2c1,0,1.7,0.2,2.6,0.8C57,6,57.1,6.2,57.3,6.3C58.4,5.3,59.1,4.7,60.7,4.5z M69.4,23.1
		c-2.7,0.3-4.6,1.5-6.4,3.7c-1.3,1.6-2.7,4.4-3.2,6.3c-0.4,1.4-0.3,2.7-0.5,4.1l0,0l0,0c0.4-0.4,1.8-2.4,1.9-2.7
		c0.1-0.4,0.2-0.7,0.3-1.1c1.1-4.1,3.7-8.2,7.5-10.2C69.2,23.2,69.3,23.1,69.4,23.1L69.4,23.1z M46,23.2L46,23.2
		c0.3,0.1,0.6,0.3,0.9,0.5c3.2,2.1,5.4,5.7,6.5,9.3c0.2,0.6,0.4,1.5,0.7,2.1c0.1,0.3,1.8,2.5,2,2.5c0-0.2-0.1-0.3-0.2-0.5
		c-0.8-2.1-1.3-4.3-1.8-6.6c-0.2-1-0.2-1.2-0.7-2c-0.9-1.4-2-2.8-3.4-3.8C49,24,47.2,23,46,23.2z M73.7,27.9
		c-0.2,0.2-0.5,0.2-0.8,0.4c-2.4,1.3-3.9,3.2-5.6,5.1c-1.6,1.8-3.4,3.5-5.3,5c-0.2,0.2-0.9,0.6-1,0.7l0,0c0.3-0.1,0.5-0.1,0.8-0.2
		c3.8-1.2,6.2-3.6,8.6-6.7c0.9-1.2,1.7-2.4,2.7-3.6C73.4,28.3,73.6,28.1,73.7,27.9L73.7,27.9L73.7,27.9z M41.5,28
		c0.2,0.4,0.5,0.8,0.8,1.1c3,4,5.6,7.8,10.6,9.7c0.4,0.1,1.7,0.6,2.1,0.5c-2.7-1.2-5.7-4-7.5-6.2c-1.6-1.9-2.9-3.5-5-4.7
		C42.2,28.3,41.7,28,41.5,28z M41.7,26.7L41.7,26.7c0.5,0.3,1,0.5,1.4,0.8c2.1,1.2,3.6,3,5.2,4.8c1.4,1.7,3,3.3,4.8,4.6
		c0.5,0.4,1.2,0.8,1.7,1.2c-0.2-0.4-0.5-0.7-0.8-1.1l-1-1.3c-2.4-3.1-4.7-6.7-8.5-8.2C43.9,27.2,42.4,26.7,41.7,26.7z M73.3,26.7
		c-3.7,0.4-6.7,3-8.9,5.9c-0.8,1-1.5,2-2.3,3c-0.6,0.8-1.3,1.6-1.9,2.5c0,0,0.1,0,0.1,0c1.2-0.5,4.1-3.2,4.9-4.1
		c2.2-2.2,4-4.9,6.7-6.5C72.3,27.3,73,27,73.3,26.7L73.3,26.7L73.3,26.7z M61.8,22c-0.3,0.2-0.5,0.5-0.8,0.8
		c-1.7,2.1-3.1,5.6-3.4,8.3c-0.1,1.3-0.1,2.5,0,3.8c0,1.1,0.1,2.4,0.3,3.5c0,0.1,0.1,0.2,0.1,0.3c0-0.8,0.1-1.4,0.2-2.1
		c0-0.4,0-0.7,0.1-1.1c0.2-1.7,0.6-3.4,1.3-5c0.1-0.2,0.3-0.6,0.4-0.8c0.1-0.6,0.2-1.1,0.3-1.7c0.4-1.8,0.8-3.8,1.4-5.5
		C61.7,22.4,61.8,22.1,61.8,22z M53.3,21.9c0,0.3,0.2,0.6,0.3,0.9c0.6,1.5,0.9,3.1,1.2,4.7l0.2,1.3c0.3,1.9,0.7,3.7,1.2,5.5
		c0.1,0.2,0.1,0.4,0.2,0.6c0-0.2,0-0.3,0-0.5c0-0.9-0.1-2.1,0-3c0.1-0.6,0.4-1.9,0.4-2.4c0-0.4-0.7-2.4-0.9-2.9
		C55.4,24.7,54.5,23.2,53.3,21.9C53.3,22,53.3,21.9,53.3,21.9z M52.5,10.7c-0.2,0-0.4,0-0.5,0c0.1,0.4,0.2,0.7,0.3,1.1
		c0.3,1,0.5,2.1,1.5,2.7c0.8,0.5,1.8,0.4,2.7,0.9c0.3,0.2,0.4,0.4,0.7,0.6c0-1-0.8-1.7-1.5-2.2c-0.7-0.4-0.9-0.4-1.6-0.4
		c0-0.3,0.2-0.9,0.2-1.2c0.8,0,1.6,0.3,2.2,0.8c0.2,0.1,0.3,0.3,0.6,0.4C56.2,11.4,54.4,10.6,52.5,10.7z M62.2,9
		c-1.9,0-3.2,1.2-3.9,3c-0.1,0.2-0.1,0.3-0.1,0.5l0,0c0.1,0,0.4-0.4,0.5-0.5c0.7-0.7,1.5-1,2.4-1.3c0,0.6,0.2,1.1,0.3,1.4l0,0l0,0
		l0,0c0,0-0.7,0-0.8,0c-0.6,0.1-1.9,1.5-2,2.1l0,0l0,0l0,0c0.2-0.3,1.4-0.8,1.7-0.9c0.5-0.2,1.2-0.2,1.6-0.6
		c0.7-0.6,1.1-2.6,1.3-3.6C62.9,9,62.6,9,62.2,9z M58.2,15.6c0.1,1.9,1.3,1.7,2.5,2.2c0.2,0.1,0.5,0.4,0.6,0.4
		c0-0.6-0.1-1.2-0.5-1.7c-0.6-0.5-1.2-0.5-1.9-0.7C58.6,15.8,58.4,15.6,58.2,15.6z M53.9,15.9c-0.3,0.4-0.9,1.6-0.5,2.1
		c0.1,0,0.7-0.7,1.1-0.8c0.3-0.1,1.3-0.2,1.5-0.4c-0.1-0.1-0.1-0.1-0.1-0.2c-0.2-0.1-0.3-0.2-0.5-0.3C55,16.1,54.5,16,53.9,15.9z
		 M55.1,6.3c0,0.4,0.1,1.2,0.3,1.6c0.1,0.2,0.3,0.3,0.4,0.5c0.1,0,0.3,0.1,0.4,0.2c0-0.1,0-0.2,0-0.3c0.1-0.3,0.2-0.6,0.4-0.9
		C56.3,6.8,55.7,6.4,55.1,6.3z"/>
</g>
<g>
	<path class="st0" d="M68.7,51.3c0.4-0.4,0.7-0.8,1-1.2l0.1-0.2c0,0,0,0,0-0.1c0.1-0.1,0.1-0.2,0.1-0.3l0.1-0.3h1.4
		c-0.2,0.3-0.4,0.5-0.5,0.7c-0.1,0.1-0.2,0.2-0.3,0.3c-0.1,0-0.1,0.1-0.2,0.2l-0.2,0.1l0.6,0v3.4h-1.1V51L69,51.3
		C68.9,51.3,68.8,51.3,68.7,51.3L68.7,51.3z M70.2,47.9v-0.6l1.1,0v0.6h1.7v-0.6h1.1v0.6h1.3v0.5h-1.3V49h-1.1v-0.6h-1.7v0.6h-1.1
		v-0.6h-1.3v-0.5H70.2z M73.1,49.3l0,1.6c0.1-0.1,0.2-0.1,0.3-0.2c0.1-0.1,0.2-0.2,0.4-0.5c0.1-0.2,0.2-0.4,0.3-0.5l1.3,0l-0.4,0.5
		c-0.2,0.3-0.5,0.5-0.8,0.8c-0.3,0.2-0.6,0.5-1,0.7V53c0,0.1,0.1,0.2,0.2,0.2c0.1,0,0.1,0,0.2,0l0.4,0c0.1,0,0.2,0,0.2,0
		c0.1-0.1,0.3-0.2,0.4-0.3c0-0.1,0.1-0.1,0.2-0.2l0.1-0.2c0.1-0.2,0.2-0.3,0.3-0.4l0.1,0.1l-0.1,0.2c0,0.1,0,0.1-0.1,0.2
		c0,0.1-0.1,0.2-0.1,0.3c0,0.1,0,0.1,0,0.2c0,0.1,0,0.1,0.1,0.1c0,0,0,0,0.1,0.1l0.1,0c0,0,0,0,0,0c0,0,0,0,0,0l0,0l0.1,0.1
		c0,0,0,0,0,0.1c0,0,0,0,0,0.1l-0.1,0.1c-0.2,0.2-0.4,0.3-0.7,0.4c-0.2,0.1-0.4,0.1-0.8,0.1c-0.4,0-0.7,0-1.1,0
		c-0.1,0-0.2,0-0.3-0.1c-0.1,0-0.2-0.1-0.3-0.2C72,53.7,72,53.5,72,53.4v-1.2l-0.5,0.1c-0.2,0-0.4,0.1-0.5,0.1l0-0.1l0.5-0.3
		c0.2-0.1,0.4-0.2,0.5-0.3v-2.4L73.1,49.3z"/>
	<path class="st0" d="M79.6,50.7c0,0.4-0.4,0.8-0.8,0.8c-0.4,0-0.8-0.4-0.8-0.8c0-0.4,0.4-0.8,0.8-0.8C79.2,50,79.6,50.3,79.6,50.7z
		"/>
	<path class="st0" d="M85.4,48.1c-0.1-0.1-0.1-0.1-0.1-0.2c0,0,0,0,0-0.1l0-0.1c0,0,0-0.1-0.1-0.1c0,0,0-0.1-0.1-0.1l-0.1-0.1l0-0.1
		c0.1,0,0.2,0,0.3,0c0.2,0,0.4-0.1,0.6,0c0.3,0,0.4,0.1,0.5,0.2c0.1,0.1,0.2,0.3,0.2,0.4c0,0.1,0,0.2-0.1,0.3h2.5v0.5h-5.3l0,1.7
		c0,0.3,0,0.5,0,0.7c0,0.2,0,0.5-0.1,0.7c-0.1,0.5-0.2,0.9-0.5,1.3c-0.1,0.2-0.2,0.4-0.4,0.5c-0.1,0.1-0.3,0.3-0.5,0.5l-0.1,0
		l0.2-0.6c0-0.1,0.1-0.3,0.1-0.5l0.1-0.5l0-0.6c0-0.2,0-0.5,0-0.7v-3.4h1.1v0.3H85.4z M83.7,50.9h1.1v0.2h0.7v-2.3h1.2v0.7h2.1v0.5
		h-2.1v1h0.7l0.3-0.3l1.2,0.3l-0.4,0.3v2.7h-1.1v-0.4h-2.6v0.4h-1.1V50.9z M87.4,51.7h-2.6v1.5h2.6V51.7z"/>
</g>
</svg>
